<svg xmlns="http://www.w3.org/2000/svg" viewBox="0 0 100 100" width="100%" height="100%">
  <defs>
    <linearGradient id="tm-grad" x1="0%" y1="100%" x2="100%" y2="0%">
      <stop offset="0%" stop-color="#073B45" />
      <stop offset="50%" stop-color="#0F9F9A" />
      <stop offset="100%" stop-color="#20B978" />
    </linearGradient>
  </defs>
  
  <!-- Outer glowing balance circle -->
  <circle cx="50" cy="50" r="46" fill="none" stroke="url(#tm-grad)" stroke-width="4" opacity="0.3"/>
  
  <!-- Main mind/leaf abstract shape -->
  <path d="M50 10 C 20 10, 5 35, 15 65 C 25 95, 60 95, 75 75 C 90 55, 80 20, 50 10 Z" fill="url(#tm-grad)"/>
  
  <!-- Human face profile cutout (negative space) -->
  <path d="M50 10 C 65 10, 75 25, 75 40 C 75 45, 70 48, 70 52 C 70 55, 74 58, 72 65 C 70 70, 60 80, 50 85 C 40 85, 30 75, 30 60 C 30 40, 40 20, 50 10 Z" fill="#ffffff"/>
  
  <!-- Growing leaf accent -->
  <path d="M75 25 C 85 15, 95 10, 95 20 C 95 30, 85 35, 75 25 Z" fill="#20B978"/>
  <path d="M85 35 C 92 28, 98 25, 98 32 C 98 39, 92 42, 85 35 Z" fill="#B9F3D5"/>
</svg>
